<svg xmlns="http://www.w3.org/2000/svg" xmlns:xlink="http://www.w3.org/1999/xlink">
    <!-- Tiles Badges -->
    <symbol id="APHEX" viewBox="0 0 24 24">
        <path class="st2" d="M23.8,20.3L18.3,4.7c-0.6-1.7-1.9-2.6-3.5-2.6H2.4C1.1,2.1,0,3.2,0,4.6S1.1,7,2.4,7H6c1.6,0,2.6-1.9,3.1-2.1
		c0.3-0.2,0.6-0.2,1-0.1c0.4,0.2,0.6,0.8,0.4,1.3l0,0L4.2,17.3l0,0c-0.2,0.4-0.1,1.1,0.2,1.4C5,19.1,5.6,19.1,6,18.6l3.3-4.1
		c0.3-0.3,0.4-0.4,1.1-0.4c1.2,0,2.1-1,2.1-2.1c0-0.4-0.1-0.7-0.3-1.1c-0.4-0.5-0.3-1.3,0.2-1.7c0,0,0.1,0,0.1-0.1
		C13,8.7,13.8,9,14.2,9.5l0,0l0,0l7.2,11.9l0,0l0,0c0.4,0.6,1.3,0.8,1.9,0.4C23.9,21.6,24.2,20.8,23.8,20.3z"/>
    </symbol>

    <symbol id="SHARE" viewBox="0 0 24 24">
        <path d="M23.5,9.4l-8.2-7.1c-0.7-0.6-1.9-0.1-1.9,0.8v3.7C5.9,6.9,0,8.4,0,15.6c0,2.9,1.8,5.7,3.9,7.2c0.6,0.5,1.5-0.1,1.3-0.9
		c-2.1-6.8,1-8.6,8.2-8.7v4.1c0,1,1.1,1.5,1.9,0.8l8.2-7.1C24,10.6,24,9.8,23.5,9.4z"/>
    </symbol>

    <symbol id="FACEBOOK" viewBox="0 0 24 24">
        <path d="M17.4,13.5L18,9.2h-4.2V6.3c0-1.2,0.6-2.3,2.4-2.3h1.9V0.3c0,0-1.7-0.3-3.4-0.3c-3.4,0-5.7,2.1-5.7,5.8v3.3H5.4v4.3h3.8V24
		h4.7V13.5H17.4z"/>
    </symbol>

    <symbol id="TWITTER" viewBox="0 0 24 24">
        <path d="M21.5,7.1c0,0.2,0,0.4,0,0.6c0,6.5-4.9,14-14,14c-2.8,0-5.4-0.8-7.6-2.2c0.4,0,0.8,0.1,1.2,0.1c2.3,0,4.4-0.8,6.1-2.1
		c-2.2,0-4-1.5-4.6-3.4c0.3,0,0.6,0.1,0.9,0.1c0.4,0,0.9-0.1,1.3-0.2C2.7,13.5,1,11.6,1,9.2V9.1c0.7,0.4,1.4,0.6,2.2,0.6
		C1.9,8.8,1,7.3,1,5.6c0-0.9,0.2-1.8,0.7-2.5c2.4,3,6.1,4.9,10.1,5.1c-0.1-0.4-0.1-0.7-0.1-1.1c0-2.7,2.2-4.9,4.9-4.9
		c1.4,0,2.7,0.6,3.6,1.6c1.1-0.2,2.2-0.6,3.1-1.2c-0.4,1.1-1.1,2.1-2.2,2.7c1-0.1,1.9-0.4,2.8-0.8C23.3,5.5,22.5,6.4,21.5,7.1
		L21.5,7.1z"/>
    </symbol>

    <symbol id="WHATSAPP" viewBox="0 0 24 24">
        <path d="M20.41,3.49A11.9,11.9,0,0,0,1.69,17.84L0,24l6.31-1.66A11.82,11.82,0,0,0,12,23.79h0A12,12,0,0,0,24,11.9,12,12,0,0,0,20.41,3.49ZM12,21.79a9.86,9.86,0,0,1-5-1.38L6.6,20.2l-3.74,1,1-3.65-.24-.38A9.9,9.9,0,1,1,22,11.9,10,10,0,0,1,12,21.79Zm5.43-7.41c-.3-.15-1.76-.86-2-1s-.48-.15-.67.15-.77,1-1,1.17-.35.22-.64.07a8.06,8.06,0,0,1-4-3.53c-.31-.53.3-.49.87-1.63a.53.53,0,0,0,0-.52C9.86,9,9.26,7.52,9,6.93s-.49-.5-.67-.51H7.78A1.07,1.07,0,0,0,7,6.78,3.3,3.3,0,0,0,6,9.26a5.77,5.77,0,0,0,1.21,3.07,13.21,13.21,0,0,0,5.08,4.49c1.88.82,2.62.89,3.56.75a3.06,3.06,0,0,0,2-1.42A2.58,2.58,0,0,0,18,14.74C17.91,14.6,17.71,14.53,17.42,14.38Z" transform="translate(0 0)"/>
    </symbol>

    <symbol id="REDDIT" viewBox="0 0 24 24">
        <path d="M21.3,9.2c-0.8,0-1.4,0.3-1.9,0.8c-1.8-1.2-4.2-2-6.9-2.1l1.4-6.3l4.4,1c0,1.1,0.9,2,2,2c1.1,0,2-0.9,2-2s-0.9-2-2-2
		c-0.8,0-1.4,0.5-1.8,1.1l-4.9-1.1c-0.2-0.1-0.5,0.1-0.6,0.4l-1.5,6.9C8.8,8,6.4,8.8,4.6,10C4.2,9.5,3.5,9.2,2.7,9.2
		c-2.8,0-3.7,3.8-1.2,5c-0.1,0.4-0.1,0.8-0.1,1.2c0,4.2,4.7,7.6,10.6,7.6c5.9,0,10.6-3.4,10.6-7.6c0-0.4,0-0.9-0.2-1.3
		C25,12.9,24,9.2,21.3,9.2L21.3,9.2z M5.6,14.5c0-1.1,0.9-2,2-2c1.1,0,2,0.9,2,2c0,1.1-0.9,2-2,2C6.5,16.5,5.6,15.6,5.6,14.5z
		 M16.4,19.2c-1.8,1.8-7,1.8-8.8,0c-0.2-0.2-0.2-0.5,0-0.7c0.2-0.2,0.5-0.2,0.7,0c1.4,1.4,6,1.5,7.5,0c0.2-0.2,0.5-0.2,0.7,0
		C16.6,18.7,16.6,19,16.4,19.2L16.4,19.2z M16.4,16.5c-1.1,0-2-0.9-2-2c0-1.1,0.9-2,2-2c1.1,0,2,0.9,2,2
		C18.3,15.6,17.5,16.5,16.4,16.5z"/>
    </symbol>

    <symbol id="CLIPBOARD" viewBox="0 0 24 24">
        <path d="M20.9,5.3v16.5c0,1.2-1,2.2-2.2,2.2H5.2c-1.2,0-2.2-1-2.2-2.2V5.3C2.9,4,3.9,3,5.2,3h3.7c0-1.7,1.3-3,3-3s3,1.3,3,3h3.7
		C19.9,3,20.9,4,20.9,5.3z M11.9,1.9c-0.6,0-1.1,0.5-1.1,1.1s0.5,1.1,1.1,1.1C12.5,4.2,13,3.7,13,3S12.5,1.9,11.9,1.9 M16.4,7.3V6.3
		c0-0.2-0.1-0.3-0.3-0.3H7.7C7.5,6,7.4,6.2,7.4,6.3v0.9c0,0.2,0.1,0.3,0.3,0.3h8.4C16.3,7.5,16.4,7.4,16.4,7.3z"/>
    </symbol>

    <symbol id="CHECK" viewBox="0 0 24 24">
        <path d="M8.2,19.6l-7.8-7.8c-0.5-0.5-0.5-1.2,0-1.7L2,8.4c0.5-0.5,1.2-0.5,1.7,0L9,13.7L20.3,2.4c0.5-0.5,1.2-0.5,1.7,0l1.7,1.7
		c0.5,0.5,0.5,1.2,0,1.7L9.8,19.6C9.4,20.1,8.6,20.1,8.2,19.6L8.2,19.6z"/>
    </symbol>

    <symbol id="EXCLAMATION" viewBox="0 0 24 24">
        <path class="st2" d="M15.7,20.2c0,2.1-1.7,3.7-3.7,3.7s-3.7-1.7-3.7-3.7s1.7-3.7,3.7-3.7S15.7,18.1,15.7,20.2z M8.7,1.3l0.6,12.7
		c0,0.6,0.5,1.1,1.1,1.1h3.1c0.6,0,1.1-0.5,1.1-1.1l0.6-12.7c0-0.6-0.5-1.2-1.1-1.2H9.8C9.2,0.1,8.7,0.6,8.7,1.3z"/>
        <path class="st2" d="M15.7,20.2c0,2.1-1.7,3.7-3.7,3.7s-3.7-1.7-3.7-3.7s1.7-3.7,3.7-3.7S15.7,18.1,15.7,20.2z M8.7,1.3l0.6,12.7
		c0,0.6,0.5,1.1,1.1,1.1h3.1c0.6,0,1.1-0.5,1.1-1.1l0.6-12.7c0-0.6-0.5-1.2-1.1-1.2H9.8C9.2,0.1,8.7,0.6,8.7,1.3z"/>
        <path class="st2" d="M15.7,20.2c0,2.1-1.7,3.7-3.7,3.7s-3.7-1.7-3.7-3.7s1.7-3.7,3.7-3.7S15.7,18.1,15.7,20.2z M8.7,1.3l0.6,12.7
		c0,0.6,0.5,1.1,1.1,1.1h3.1c0.6,0,1.1-0.5,1.1-1.1l0.6-12.7c0-0.6-0.5-1.2-1.1-1.2H9.8C9.2,0.1,8.7,0.6,8.7,1.3z"/>
    </symbol>

    <symbol id="GRID" viewBox="0 0 24 24">
        <path class="st2" d="M11.1,13.7h1.7c0.5,0,0.9-0.4,0.9-0.9v-1.7c0-0.5-0.4-0.9-0.9-0.9h-1.7c-0.5,0-0.9,0.4-0.9,0.9v1.7
		C10.3,13.3,10.7,13.7,11.1,13.7z M16.3,13.7H18c0.5,0,0.9-0.4,0.9-0.9v-1.7c0-0.5-0.4-0.9-0.9-0.9h-1.7c-0.5,0-0.9,0.4-0.9,0.9v1.7
		C15.4,13.3,15.8,13.7,16.3,13.7z M23.1,10.3h-1.7c-0.5,0-0.9,0.4-0.9,0.9v1.7c0,0.5,0.4,0.9,0.9,0.9h1.7c0.5,0,0.9-0.4,0.9-0.9
		v-1.7C24,10.7,23.6,10.3,23.1,10.3z M6,13.7h1.7c0.5,0,0.9-0.4,0.9-0.9v-1.7c0-0.5-0.4-0.9-0.9-0.9H6c-0.5,0-0.9,0.4-0.9,0.9v1.7
		C5.1,13.3,5.5,13.7,6,13.7z M23.1,15.4h-1.7c-0.5,0-0.9,0.4-0.9,0.9V18c0,0.5,0.4,0.9,0.9,0.9h1.7c0.5,0,0.9-0.4,0.9-0.9v-1.7
		C24,15.8,23.6,15.4,23.1,15.4z M23.1,5.1h-1.7c-0.5,0-0.9,0.4-0.9,0.9v1.7c0,0.5,0.4,0.9,0.9,0.9h1.7c0.5,0,0.9-0.4,0.9-0.9V6
		C24,5.5,23.6,5.1,23.1,5.1z M11.1,18.9h1.7c0.5,0,0.9-0.4,0.9-0.9v-1.7c0-0.5-0.4-0.9-0.9-0.9h-1.7c-0.5,0-0.9,0.4-0.9,0.9V18
		C10.3,18.5,10.7,18.9,11.1,18.9z M11.1,8.6h1.7c0.5,0,0.9-0.4,0.9-0.9V6c0-0.5-0.4-0.9-0.9-0.9h-1.7c-0.5,0-0.9,0.4-0.9,0.9v1.7
		C10.3,8.2,10.7,8.6,11.1,8.6z M11.1,3.4h1.7c0.5,0,0.9-0.4,0.9-0.9V0.9c0-0.5-0.4-0.9-0.9-0.9h-1.7c-0.5,0-0.9,0.4-0.9,0.9v1.7
		C10.3,3,10.7,3.4,11.1,3.4z M16.3,3.4H18c0.5,0,0.9-0.4,0.9-0.9V0.9C18.9,0.4,18.5,0,18,0h-1.7c-0.5,0-0.9,0.4-0.9,0.9v1.7
		C15.4,3,15.8,3.4,16.3,3.4z M23.1,0h-1.7c-0.5,0-0.9,0.4-0.9,0.9v1.7c0,0.5,0.4,0.9,0.9,0.9h1.7C23.6,3.4,24,3,24,2.6V0.9
		C24,0.4,23.6,0,23.1,0z M0.9,13.7h1.7c0.5,0,0.9-0.4,0.9-0.9v-1.7c0-0.5-0.4-0.9-0.9-0.9H0.9c-0.5,0-0.9,0.4-0.9,0.9v1.7
		C0,13.3,0.4,13.7,0.9,13.7z M0.9,18.9h1.7c0.5,0,0.9-0.4,0.9-0.9v-1.7c0-0.5-0.4-0.9-0.9-0.9H0.9c-0.5,0-0.9,0.4-0.9,0.9V18
		C0,18.5,0.4,18.9,0.9,18.9z M0.9,8.6h1.7c0.5,0,0.9-0.4,0.9-0.9V6c0-0.5-0.4-0.9-0.9-0.9H0.9C0.4,5.1,0,5.5,0,6v1.7
		C0,8.2,0.4,8.6,0.9,8.6z M0.9,3.4h1.7C3,3.4,3.4,3,3.4,2.6V0.9C3.4,0.4,3,0,2.6,0H0.9C0.4,0,0,0.4,0,0.9v1.7C0,3,0.4,3.4,0.9,3.4z
		 M6,3.4h1.7c0.5,0,0.9-0.4,0.9-0.9V0.9C8.6,0.4,8.2,0,7.7,0H6C5.5,0,5.1,0.4,5.1,0.9v1.7C5.1,3,5.5,3.4,6,3.4z M23.1,20.6H0.9
		C0.4,20.6,0,21,0,21.4v1.7C0,23.6,0.4,24,0.9,24h22.3c0.5,0,0.9-0.4,0.9-0.9v-1.7C24,21,23.6,20.6,23.1,20.6z"/>
    </symbol>

    <symbol id="COLUMN" viewBox="0 0 24 24">
        <path class="st2" d="M23.3,13.4h-9c-0.4,0-0.7,0.3-0.7,0.7v1.5c0,0.4,0.3,0.7,0.7,0.7h9c0.4,0,0.7-0.3,0.7-0.7v-1.5
		C24,13.7,23.7,13.4,23.3,13.4z M23.3,19.4h-9c-0.4,0-0.7,0.3-0.7,0.7v1.5c0,0.4,0.3,0.7,0.7,0.7h9c0.4,0,0.7-0.3,0.7-0.7v-1.5
		C24,19.7,23.7,19.4,23.3,19.4z M23.3,7.4h-9c-0.4,0-0.7,0.3-0.7,0.7v1.5c0,0.4,0.3,0.7,0.7,0.7h9c0.4,0,0.7-0.3,0.7-0.7V8.1
		C24,7.7,23.7,7.4,23.3,7.4z M23.3,1.4h-9c-0.4,0-0.7,0.3-0.7,0.7v1.5c0,0.4,0.3,0.7,0.7,0.7h9C23.7,4.4,24,4,24,3.6V2.1
		C24,1.7,23.7,1.4,23.3,1.4z M9.8,13.4h-9c-0.4,0-0.7,0.3-0.7,0.7v1.5c0,0.4,0.3,0.7,0.7,0.7h9c0.4,0,0.7-0.3,0.7-0.7v-1.5
		C10.5,13.7,10.2,13.4,9.8,13.4z M9.8,19.4h-9c-0.4,0-0.7,0.3-0.7,0.7v1.5c0,0.4,0.3,0.7,0.7,0.7h9c0.4,0,0.7-0.3,0.7-0.7v-1.5
		C10.5,19.7,10.2,19.4,9.8,19.4z M9.8,1.4h-9C0.4,1.4,0,1.7,0,2.1v1.5C0,4,0.4,4.4,0.8,4.4h9c0.4,0,0.7-0.3,0.7-0.7V2.1
		C10.5,1.7,10.2,1.4,9.8,1.4z M9.8,7.4h-9C0.4,7.4,0,7.7,0,8.1v1.5c0,0.4,0.3,0.7,0.7,0.7h9c0.4,0,0.7-0.3,0.7-0.7V8.1
		C10.5,7.7,10.2,7.4,9.8,7.4z"/>
    </symbol>

</svg>