<?xml version="1.0" encoding="utf-8"?>
<!-- Generator: Adobe Illustrator 23.0.1, SVG Export Plug-In . SVG Version: 6.00 Build 0)  -->
<svg version="1.1" id="Layer_1" xmlns="http://www.w3.org/2000/svg" xmlns:xlink="http://www.w3.org/1999/xlink" x="0px" y="0px"
	 viewBox="0 0 24.6 24.6" style="enable-background:new 0 0 24 24;" xml:space="preserve">
<style type="text/css">
	.st0{fill-rule:evenodd;clip-rule:evenodd;}
</style>
<path class="st0" d="M23.5,20.1L18.3,5.4c-0.6-1.6-1.8-2.5-3.3-2.5H3.3C2,2.9,1,4,1,5.3S2,7.6,3.3,7.6h3.4c1.5,0,2.5-1.8,2.9-2
	c0.3-0.2,0.6-0.2,0.9-0.1c0.4,0.2,0.6,0.8,0.4,1.2c0,0,0,0,0,0L5,17.3h0c-0.2,0.4-0.1,1,0.2,1.3C5.7,19,6.3,19,6.7,18.5l3.1-3.9
	c0.3-0.3,0.4-0.4,1-0.4c1.1,0,2-0.9,2-2c0-0.4-0.1-0.7-0.3-1c-0.4-0.5-0.3-1.2,0.2-1.6c0,0,0.1,0,0.1-0.1c0.5-0.3,1.2-0.1,1.6,0.4
	c0,0,0,0,0,0h0l6.8,11.2c0,0,0,0,0,0l0,0c0.4,0.6,1.2,0.8,1.8,0.4C23.6,21.3,23.8,20.6,23.5,20.1z"/>
</svg>
