<svg xmlns="http://www.w3.org/2000/svg" xmlns:xlink="http://www.w3.org/1999/xlink">
    <!-- Tiles Badges -->
    <symbol id="APHEX" viewBox="0 0 24 24">
        <path class="st2" d="M23.8,20.3L18.3,4.7c-0.6-1.7-1.9-2.6-3.5-2.6H2.4C1.1,2.1,0,3.2,0,4.6S1.1,7,2.4,7H6c1.6,0,2.6-1.9,3.1-2.1
		c0.3-0.2,0.6-0.2,1-0.1c0.4,0.2,0.6,0.8,0.4,1.3l0,0L4.2,17.3l0,0c-0.2,0.4-0.1,1.1,0.2,1.4C5,19.1,5.6,19.1,6,18.6l3.3-4.1
		c0.3-0.3,0.4-0.4,1.1-0.4c1.2,0,2.1-1,2.1-2.1c0-0.4-0.1-0.7-0.3-1.1c-0.4-0.5-0.3-1.3,0.2-1.7c0,0,0.1,0,0.1-0.1
		C13,8.7,13.8,9,14.2,9.5l0,0l0,0l7.2,11.9l0,0l0,0c0.4,0.6,1.3,0.8,1.9,0.4C23.9,21.6,24.2,20.8,23.8,20.3z"/>
    </symbol>

    <symbol id="SHARE" viewBox="0 0 24 24">
        <path d="M23.5,9.4l-8.2-7.1c-0.7-0.6-1.9-0.1-1.9,0.8v3.7C5.9,6.9,0,8.4,0,15.6c0,2.9,1.8,5.7,3.9,7.2c0.6,0.5,1.5-0.1,1.3-0.9
		c-2.1-6.8,1-8.6,8.2-8.7v4.1c0,1,1.1,1.5,1.9,0.8l8.2-7.1C24,10.6,24,9.8,23.5,9.4z"/>
    </symbol>

    <symbol id="FACEBOOK" viewBox="0 0 24 24">
        <path d="M17.4,13.5L18,9.2h-4.2V6.3c0-1.2,0.6-2.3,2.4-2.3h1.9V0.3c0,0-1.7-0.3-3.4-0.3c-3.4,0-5.7,2.1-5.7,5.8v3.3H5.4v4.3h3.8V24
		h4.7V13.5H17.4z"/>
    </symbol>

    <symbol id="TWITTER" viewBox="0 0 24 24">
        <path d="M21.5,7.1c0,0.2,0,0.4,0,0.6c0,6.5-4.9,14-14,14c-2.8,0-5.4-0.8-7.6-2.2c0.4,0,0.8,0.1,1.2,0.1c2.3,0,4.4-0.8,6.1-2.1
		c-2.2,0-4-1.5-4.6-3.4c0.3,0,0.6,0.1,0.9,0.1c0.4,0,0.9-0.1,1.3-0.2C2.7,13.5,1,11.6,1,9.2V9.1c0.7,0.4,1.4,0.6,2.2,0.6
		C1.9,8.8,1,7.3,1,5.6c0-0.9,0.2-1.8,0.7-2.5c2.4,3,6.1,4.9,10.1,5.1c-0.1-0.4-0.1-0.7-0.1-1.1c0-2.7,2.2-4.9,4.9-4.9
		c1.4,0,2.7,0.6,3.6,1.6c1.1-0.2,2.2-0.6,3.1-1.2c-0.4,1.1-1.1,2.1-2.2,2.7c1-0.1,1.9-0.4,2.8-0.8C23.3,5.5,22.5,6.4,21.5,7.1
		L21.5,7.1z"/>
    </symbol>

    <symbol id="WHATSAPP" viewBox="0 0 24 24">
        <path d="M20.41,3.49A11.9,11.9,0,0,0,1.69,17.84L0,24l6.31-1.66A11.82,11.82,0,0,0,12,23.79h0A12,12,0,0,0,24,11.9,12,12,0,0,0,20.41,3.49ZM12,21.79a9.86,9.86,0,0,1-5-1.38L6.6,20.2l-3.74,1,1-3.65-.24-.38A9.9,9.9,0,1,1,22,11.9,10,10,0,0,1,12,21.79Zm5.43-7.41c-.3-.15-1.76-.86-2-1s-.48-.15-.67.15-.77,1-1,1.17-.35.22-.64.07a8.06,8.06,0,0,1-4-3.53c-.31-.53.3-.49.87-1.63a.53.53,0,0,0,0-.52C9.86,9,9.26,7.52,9,6.93s-.49-.5-.67-.51H7.78A1.07,1.07,0,0,0,7,6.78,3.3,3.3,0,0,0,6,9.26a5.77,5.77,0,0,0,1.21,3.07,13.21,13.21,0,0,0,5.08,4.49c1.88.82,2.62.89,3.56.75a3.06,3.06,0,0,0,2-1.42A2.58,2.58,0,0,0,18,14.74C17.91,14.6,17.71,14.53,17.42,14.38Z" transform="translate(0 0)"/>
    </symbol>

    <symbol id="REDDIT" viewBox="0 0 24 24">
        <path d="M21.3,9.2c-0.8,0-1.4,0.3-1.9,0.8c-1.8-1.2-4.2-2-6.9-2.1l1.4-6.3l4.4,1c0,1.1,0.9,2,2,2c1.1,0,2-0.9,2-2s-0.9-2-2-2
		c-0.8,0-1.4,0.5-1.8,1.1l-4.9-1.1c-0.2-0.1-0.5,0.1-0.6,0.4l-1.5,6.9C8.8,8,6.4,8.8,4.6,10C4.2,9.5,3.5,9.2,2.7,9.2
		c-2.8,0-3.7,3.8-1.2,5c-0.1,0.4-0.1,0.8-0.1,1.2c0,4.2,4.7,7.6,10.6,7.6c5.9,0,10.6-3.4,10.6-7.6c0-0.4,0-0.9-0.2-1.3
		C25,12.9,24,9.2,21.3,9.2L21.3,9.2z M5.6,14.5c0-1.1,0.9-2,2-2c1.1,0,2,0.9,2,2c0,1.1-0.9,2-2,2C6.5,16.5,5.6,15.6,5.6,14.5z
		 M16.4,19.2c-1.8,1.8-7,1.8-8.8,0c-0.2-0.2-0.2-0.5,0-0.7c0.2-0.2,0.5-0.2,0.7,0c1.4,1.4,6,1.5,7.5,0c0.2-0.2,0.5-0.2,0.7,0
		C16.6,18.7,16.6,19,16.4,19.2L16.4,19.2z M16.4,16.5c-1.1,0-2-0.9-2-2c0-1.1,0.9-2,2-2c1.1,0,2,0.9,2,2
		C18.3,15.6,17.5,16.5,16.4,16.5z"/>
    </symbol>

    <symbol id="CLIPBOARD" viewBox="0 0 24 24">
        <path d="M20.9,5.3v16.5c0,1.2-1,2.2-2.2,2.2H5.2c-1.2,0-2.2-1-2.2-2.2V5.3C2.9,4,3.9,3,5.2,3h3.7c0-1.7,1.3-3,3-3s3,1.3,3,3h3.7
		C19.9,3,20.9,4,20.9,5.3z M11.9,1.9c-0.6,0-1.1,0.5-1.1,1.1s0.5,1.1,1.1,1.1C12.5,4.2,13,3.7,13,3S12.5,1.9,11.9,1.9 M16.4,7.3V6.3
		c0-0.2-0.1-0.3-0.3-0.3H7.7C7.5,6,7.4,6.2,7.4,6.3v0.9c0,0.2,0.1,0.3,0.3,0.3h8.4C16.3,7.5,16.4,7.4,16.4,7.3z"/>
    </symbol>

    <symbol id="CHECK" viewBox="0 0 24 24">
        <path d="M8.2,19.6l-7.8-7.8c-0.5-0.5-0.5-1.2,0-1.7L2,8.4c0.5-0.5,1.2-0.5,1.7,0L9,13.7L20.3,2.4c0.5-0.5,1.2-0.5,1.7,0l1.7,1.7
		c0.5,0.5,0.5,1.2,0,1.7L9.8,19.6C9.4,20.1,8.6,20.1,8.2,19.6L8.2,19.6z"/>
    </symbol>

    <symbol id="EXCLAMATION" viewBox="0 0 24 24">
        <path class="st2" d="M15.7,20.2c0,2.1-1.7,3.7-3.7,3.7s-3.7-1.7-3.7-3.7s1.7-3.7,3.7-3.7S15.7,18.1,15.7,20.2z M8.7,1.3l0.6,12.7
		c0,0.6,0.5,1.1,1.1,1.1h3.1c0.6,0,1.1-0.5,1.1-1.1l0.6-12.7c0-0.6-0.5-1.2-1.1-1.2H9.8C9.2,0.1,8.7,0.6,8.7,1.3z"/>
        <path class="st2" d="M15.7,20.2c0,2.1-1.7,3.7-3.7,3.7s-3.7-1.7-3.7-3.7s1.7-3.7,3.7-3.7S15.7,18.1,15.7,20.2z M8.7,1.3l0.6,12.7
		c0,0.6,0.5,1.1,1.1,1.1h3.1c0.6,0,1.1-0.5,1.1-1.1l0.6-12.7c0-0.6-0.5-1.2-1.1-1.2H9.8C9.2,0.1,8.7,0.6,8.7,1.3z"/>
        <path class="st2" d="M15.7,20.2c0,2.1-1.7,3.7-3.7,3.7s-3.7-1.7-3.7-3.7s1.7-3.7,3.7-3.7S15.7,18.1,15.7,20.2z M8.7,1.3l0.6,12.7
		c0,0.6,0.5,1.1,1.1,1.1h3.1c0.6,0,1.1-0.5,1.1-1.1l0.6-12.7c0-0.6-0.5-1.2-1.1-1.2H9.8C9.2,0.1,8.7,0.6,8.7,1.3z"/>
    </symbol>

    <symbol id="GRID" viewBox="0 0 24 24">
        <path class="st2" d="M11.1,13.7h1.7c0.5,0,0.9-0.4,0.9-0.9v-1.7c0-0.5-0.4-0.9-0.9-0.9h-1.7c-0.5,0-0.9,0.4-0.9,0.9v1.7
		C10.3,13.3,10.7,13.7,11.1,13.7z M16.3,13.7H18c0.5,0,0.9-0.4,0.9-0.9v-1.7c0-0.5-0.4-0.9-0.9-0.9h-1.7c-0.5,0-0.9,0.4-0.9,0.9v1.7
		C15.4,13.3,15.8,13.7,16.3,13.7z M23.1,10.3h-1.7c-0.5,0-0.9,0.4-0.9,0.9v1.7c0,0.5,0.4,0.9,0.9,0.9h1.7c0.5,0,0.9-0.4,0.9-0.9
		v-1.7C24,10.7,23.6,10.3,23.1,10.3z M6,13.7h1.7c0.5,0,0.9-0.4,0.9-0.9v-1.7c0-0.5-0.4-0.9-0.9-0.9H6c-0.5,0-0.9,0.4-0.9,0.9v1.7
		C5.1,13.3,5.5,13.7,6,13.7z M23.1,15.4h-1.7c-0.5,0-0.9,0.4-0.9,0.9V18c0,0.5,0.4,0.9,0.9,0.9h1.7c0.5,0,0.9-0.4,0.9-0.9v-1.7
		C24,15.8,23.6,15.4,23.1,15.4z M23.1,5.1h-1.7c-0.5,0-0.9,0.4-0.9,0.9v1.7c0,0.5,0.4,0.9,0.9,0.9h1.7c0.5,0,0.9-0.4,0.9-0.9V6
		C24,5.5,23.6,5.1,23.1,5.1z M11.1,18.9h1.7c0.5,0,0.9-0.4,0.9-0.9v-1.7c0-0.5-0.4-0.9-0.9-0.9h-1.7c-0.5,0-0.9,0.4-0.9,0.9V18
		C10.3,18.5,10.7,18.9,11.1,18.9z M11.1,8.6h1.7c0.5,0,0.9-0.4,0.9-0.9V6c0-0.5-0.4-0.9-0.9-0.9h-1.7c-0.5,0-0.9,0.4-0.9,0.9v1.7
		C10.3,8.2,10.7,8.6,11.1,8.6z M11.1,3.4h1.7c0.5,0,0.9-0.4,0.9-0.9V0.9c0-0.5-0.4-0.9-0.9-0.9h-1.7c-0.5,0-0.9,0.4-0.9,0.9v1.7
		C10.3,3,10.7,3.4,11.1,3.4z M16.3,3.4H18c0.5,0,0.9-0.4,0.9-0.9V0.9C18.9,0.4,18.5,0,18,0h-1.7c-0.5,0-0.9,0.4-0.9,0.9v1.7
		C15.4,3,15.8,3.4,16.3,3.4z M23.1,0h-1.7c-0.5,0-0.9,0.4-0.9,0.9v1.7c0,0.5,0.4,0.9,0.9,0.9h1.7C23.6,3.4,24,3,24,2.6V0.9
		C24,0.4,23.6,0,23.1,0z M0.9,13.7h1.7c0.5,0,0.9-0.4,0.9-0.9v-1.7c0-0.5-0.4-0.9-0.9-0.9H0.9c-0.5,0-0.9,0.4-0.9,0.9v1.7
		C0,13.3,0.4,13.7,0.9,13.7z M0.9,18.9h1.7c0.5,0,0.9-0.4,0.9-0.9v-1.7c0-0.5-0.4-0.9-0.9-0.9H0.9c-0.5,0-0.9,0.4-0.9,0.9V18
		C0,18.5,0.4,18.9,0.9,18.9z M0.9,8.6h1.7c0.5,0,0.9-0.4,0.9-0.9V6c0-0.5-0.4-0.9-0.9-0.9H0.9C0.4,5.1,0,5.5,0,6v1.7
		C0,8.2,0.4,8.6,0.9,8.6z M0.9,3.4h1.7C3,3.4,3.4,3,3.4,2.6V0.9C3.4,0.4,3,0,2.6,0H0.9C0.4,0,0,0.4,0,0.9v1.7C0,3,0.4,3.4,0.9,3.4z
		 M6,3.4h1.7c0.5,0,0.9-0.4,0.9-0.9V0.9C8.6,0.4,8.2,0,7.7,0H6C5.5,0,5.1,0.4,5.1,0.9v1.7C5.1,3,5.5,3.4,6,3.4z M23.1,20.6H0.9
		C0.4,20.6,0,21,0,21.4v1.7C0,23.6,0.4,24,0.9,24h22.3c0.5,0,0.9-0.4,0.9-0.9v-1.7C24,21,23.6,20.6,23.1,20.6z"/>
    </symbol>ยง

    <symbol id="COLUMN" viewBox="0 0 24 24">
        <path class="st2" d="M23.3,13.4h-9c-0.4,0-0.7,0.3-0.7,0.7v1.5c0,0.4,0.3,0.7,0.7,0.7h9c0.4,0,0.7-0.3,0.7-0.7v-1.5
		C24,13.7,23.7,13.4,23.3,13.4z M23.3,19.4h-9c-0.4,0-0.7,0.3-0.7,0.7v1.5c0,0.4,0.3,0.7,0.7,0.7h9c0.4,0,0.7-0.3,0.7-0.7v-1.5
		C24,19.7,23.7,19.4,23.3,19.4z M23.3,7.4h-9c-0.4,0-0.7,0.3-0.7,0.7v1.5c0,0.4,0.3,0.7,0.7,0.7h9c0.4,0,0.7-0.3,0.7-0.7V8.1
		C24,7.7,23.7,7.4,23.3,7.4z M23.3,1.4h-9c-0.4,0-0.7,0.3-0.7,0.7v1.5c0,0.4,0.3,0.7,0.7,0.7h9C23.7,4.4,24,4,24,3.6V2.1
		C24,1.7,23.7,1.4,23.3,1.4z M9.8,13.4h-9c-0.4,0-0.7,0.3-0.7,0.7v1.5c0,0.4,0.3,0.7,0.7,0.7h9c0.4,0,0.7-0.3,0.7-0.7v-1.5
		C10.5,13.7,10.2,13.4,9.8,13.4z M9.8,19.4h-9c-0.4,0-0.7,0.3-0.7,0.7v1.5c0,0.4,0.3,0.7,0.7,0.7h9c0.4,0,0.7-0.3,0.7-0.7v-1.5
		C10.5,19.7,10.2,19.4,9.8,19.4z M9.8,1.4h-9C0.4,1.4,0,1.7,0,2.1v1.5C0,4,0.4,4.4,0.8,4.4h9c0.4,0,0.7-0.3,0.7-0.7V2.1
		C10.5,1.7,10.2,1.4,9.8,1.4z M9.8,7.4h-9C0.4,7.4,0,7.7,0,8.1v1.5c0,0.4,0.3,0.7,0.7,0.7h9c0.4,0,0.7-0.3,0.7-0.7V8.1
		C10.5,7.7,10.2,7.4,9.8,7.4z"/>
    </symbol>

    <symbol id="YOUTUBE" viewBox="0 0 24 24">
        <path d="M 22.902344 5.089844 C 22.640625 4.121094 21.871094 3.355469 20.890625 3.097656 C 19.117188 2.625 12 2.625 12 2.625 C 12 2.625 4.882812 2.625 3.109375 3.097656 C 2.128906 3.355469 1.359375 4.121094 1.097656 5.089844 C 0.621094 6.847656 0.621094 10.515625 0.621094 10.515625 C 0.621094 10.515625 0.621094 14.183594 1.097656 15.941406 C 1.359375 16.914062 2.128906 17.644531 3.109375 17.902344 C 4.882812 18.375 12 18.375 12 18.375 C 12 18.375 19.117188 18.375 20.890625 17.902344 C 21.871094 17.644531 22.640625 16.914062 22.902344 15.941406 C 23.378906 14.183594 23.378906 10.515625 23.378906 10.515625 C 23.378906 10.515625 23.378906 6.847656 22.902344 5.089844 Z M 9.671875 13.847656 L 9.671875 7.183594 L 15.621094 10.515625 Z M 9.671875 13.847656 "/>
    </symbol>

    <symbol id="SPOTIFY" viewBox="0 0 24 24">
        <path d="M 11.5 0.359375 C 5.152344 0.359375 0 5.351562 0 11.5 C 0 17.648438 5.152344 22.640625 11.5 22.640625 C 17.847656 22.640625 23 17.648438 23 11.5 C 23 5.351562 17.847656 0.359375 11.5 0.359375 Z M 16.167969 16.75 C 15.976562 16.75 15.855469 16.691406 15.671875 16.589844 C 12.78125 14.902344 9.414062 14.828125 6.089844 15.488281 C 5.90625 15.535156 5.671875 15.605469 5.535156 15.605469 C 5.085938 15.605469 4.804688 15.261719 4.804688 14.894531 C 4.804688 14.433594 5.085938 14.214844 5.433594 14.140625 C 9.234375 13.328125 13.113281 13.398438 16.425781 15.316406 C 16.707031 15.492188 16.875 15.652344 16.875 16.058594 C 16.875 16.46875 16.546875 16.75 16.167969 16.75 Z M 17.417969 13.804688 C 17.175781 13.804688 17.011719 13.699219 16.847656 13.617188 C 13.949219 11.953125 9.625 11.285156 5.78125 12.296875 C 5.558594 12.351562 5.4375 12.410156 5.230469 12.410156 C 4.734375 12.410156 4.332031 12.019531 4.332031 11.539062 C 4.332031 11.058594 4.570312 10.742188 5.050781 10.609375 C 6.339844 10.261719 7.65625 10 9.585938 10 C 12.59375 10 15.5 10.722656 17.792969 12.042969 C 18.167969 12.257812 18.316406 12.539062 18.316406 12.929688 C 18.3125 13.414062 17.921875 13.804688 17.417969 13.804688 Z M 18.855469 10.382812 C 18.613281 10.382812 18.464844 10.324219 18.257812 10.207031 C 14.953125 8.296875 9.050781 7.839844 5.230469 8.871094 C 5.0625 8.917969 4.855469 8.988281 4.632812 8.988281 C 4.019531 8.988281 3.550781 8.527344 3.550781 7.929688 C 3.550781 7.316406 3.941406 6.972656 4.359375 6.855469 C 5.992188 6.390625 7.816406 6.171875 9.808594 6.171875 C 13.191406 6.171875 16.738281 6.855469 19.332031 8.320312 C 19.695312 8.523438 19.929688 8.800781 19.929688 9.335938 C 19.929688 9.945312 19.421875 10.382812 18.855469 10.382812 Z M 18.855469 10.382812 "/>
    </symbol>
    
    <symbol id="APPLE" viewBox="0 0 24 24">
        <path d="M 22.050781 0.0703125 L 7.050781 4.5 C 6.425781 4.695312 6 5.273438 6 5.929688 L 6 18.183594 C 5.507812 18.066406 5.003906 18.003906 4.5 18 C 2.015625 18 0 19.34375 0 21 C 0 22.65625 2.015625 24 4.5 24 C 6.984375 24 9 22.65625 9 21 L 9 10.046875 L 21 6.53125 L 21 15.183594 C 20.507812 15.066406 20.003906 15.003906 19.5 15 C 17.015625 15 15 16.34375 15 18 C 15 19.65625 17.015625 21 19.5 21 C 21.984375 21 24 19.65625 24 18 L 24 1.5 C 24 1.023438 23.773438 0.574219 23.386719 0.292969 C 23 0.0078125 22.503906 -0.0742188 22.050781 0.0703125 Z M 22.050781 0.0703125 "/>
    </symbol>

    <symbol id="HAMBURGER" viewBox="0 0 24 24">
        <path d="M 0.75 6.1875 L 20.25 6.1875 C 20.664062 6.1875 21 5.851562 21 5.4375 L 21 3.5625 C 21 3.148438 20.664062 2.8125 20.25 2.8125 L 0.75 2.8125 C 0.335938 2.8125 0 3.148438 0 3.5625 L 0 5.4375 C 0 5.851562 0.335938 6.1875 0.75 6.1875 Z M 0.75 13.6875 L 20.25 13.6875 C 20.664062 13.6875 21 13.351562 21 12.9375 L 21 11.0625 C 21 10.648438 20.664062 10.3125 20.25 10.3125 L 0.75 10.3125 C 0.335938 10.3125 0 10.648438 0 11.0625 L 0 12.9375 C 0 13.351562 0.335938 13.6875 0.75 13.6875 Z M 0.75 21.1875 L 20.25 21.1875 C 20.664062 21.1875 21 20.851562 21 20.4375 L 21 18.5625 C 21 18.148438 20.664062 17.8125 20.25 17.8125 L 0.75 17.8125 C 0.335938 17.8125 0 18.148438 0 18.5625 L 0 20.4375 C 0 20.851562 0.335938 21.1875 0.75 21.1875 Z M 0.75 21.1875 "/>
    </symbol>

    <symbol id="TIMES" viewBox="0 0 24 24">
        <path d="M 11.03125 11.5 L 15.582031 7.003906 C 16.140625 6.453125 16.140625 5.558594 15.582031 5.007812 L 14.570312 4.007812 C 14.011719 3.457031 13.105469 3.457031 12.546875 4.007812 L 8 8.503906 L 3.453125 4.007812 C 2.894531 3.457031 1.988281 3.457031 1.429688 4.007812 L 0.417969 5.007812 C -0.140625 5.558594 -0.140625 6.453125 0.417969 7.003906 L 4.96875 11.5 L 0.417969 15.996094 C -0.140625 16.546875 -0.140625 17.441406 0.417969 17.992188 L 1.429688 18.992188 C 1.988281 19.542969 2.894531 19.542969 3.453125 18.992188 L 8 14.496094 L 12.546875 18.992188 C 13.105469 19.542969 14.011719 19.542969 14.570312 18.992188 L 15.582031 17.992188 C 16.140625 17.441406 16.140625 16.546875 15.582031 15.996094 Z M 11.03125 11.5 "/>
    </symbol>

    <symbol id="DEEZER" viewBox="0 0 24 24">
        <g id="surface1">
            <path d="M 0 17.34375 L 4.367188 17.34375 L 4.367188 18.667969 L 0 18.667969 Z M 0 17.34375 "/>
            <path d="M 0 15.621094 L 4.367188 15.621094 L 4.367188 16.945312 L 0 16.945312 Z M 0 15.621094 "/>
            <path d="M 0 13.902344 L 4.367188 13.902344 L 4.367188 15.226562 L 0 15.226562 Z M 0 13.902344 "/>
            <path d="M 0 12.179688 L 4.367188 12.179688 L 4.367188 13.503906 L 0 13.503906 Z M 0 12.179688 "/>
            <path d="M 0 10.460938 L 4.367188 10.460938 L 4.367188 11.78125 L 0 11.78125 Z M 0 10.460938 "/>
            <path d="M 4.898438 17.34375 L 9.265625 17.34375 L 9.265625 18.667969 L 4.898438 18.667969 Z M 4.898438 17.34375 "/>
            <path d="M 4.898438 15.621094 L 9.265625 15.621094 L 9.265625 16.945312 L 4.898438 16.945312 Z M 4.898438 15.621094 "/>
            <path d="M 4.898438 13.902344 L 9.265625 13.902344 L 9.265625 15.226562 L 4.898438 15.226562 Z M 4.898438 13.902344 "/>
            <path d="M 9.796875 17.34375 L 14.164062 17.34375 L 14.164062 18.667969 L 9.796875 18.667969 Z M 9.796875 17.34375 "/>
            <path d="M 9.796875 15.621094 L 14.164062 15.621094 L 14.164062 16.945312 L 9.796875 16.945312 Z M 9.796875 15.621094 "/>
            <path d="M 9.796875 13.902344 L 14.164062 13.902344 L 14.164062 15.226562 L 9.796875 15.226562 Z M 9.796875 13.902344 "/>
            <path d="M 9.796875 12.179688 L 14.164062 12.179688 L 14.164062 13.503906 L 9.796875 13.503906 Z M 9.796875 12.179688 "/>
            <path d="M 9.796875 10.460938 L 14.164062 10.460938 L 14.164062 11.78125 L 9.796875 11.78125 Z M 9.796875 10.460938 "/>
            <path d="M 9.796875 8.738281 L 14.164062 8.738281 L 14.164062 10.0625 L 9.796875 10.0625 Z M 9.796875 8.738281 "/>
            <path d="M 9.796875 7.015625 L 14.164062 7.015625 L 14.164062 8.339844 L 9.796875 8.339844 Z M 9.796875 7.015625 "/>
            <path d="M 14.695312 17.34375 L 19.0625 17.34375 L 19.0625 18.667969 L 14.695312 18.667969 Z M 14.695312 17.34375 "/>
            <path d="M 14.695312 15.621094 L 19.0625 15.621094 L 19.0625 16.945312 L 14.695312 16.945312 Z M 14.695312 15.621094 "/>
            <path d="M 14.695312 13.902344 L 19.0625 13.902344 L 19.0625 15.226562 L 14.695312 15.226562 Z M 14.695312 13.902344 "/>
            <path d="M 14.695312 12.179688 L 19.0625 12.179688 L 19.0625 13.503906 L 14.695312 13.503906 Z M 14.695312 12.179688 "/>
            <path d="M 14.695312 10.460938 L 19.0625 10.460938 L 19.0625 11.78125 L 14.695312 11.78125 Z M 14.695312 10.460938 "/>
            <path d="M 19.59375 17.34375 L 23.960938 17.34375 L 23.960938 18.667969 L 19.59375 18.667969 Z M 19.59375 17.34375 "/>
            <path d="M 19.59375 15.621094 L 23.960938 15.621094 L 23.960938 16.945312 L 19.59375 16.945312 Z M 19.59375 15.621094 "/>
            <path d="M 19.59375 13.902344 L 23.960938 13.902344 L 23.960938 15.226562 L 19.59375 15.226562 Z M 19.59375 13.902344 "/>
            <path d="M 19.59375 12.179688 L 23.960938 12.179688 L 23.960938 13.503906 L 19.59375 13.503906 Z M 19.59375 12.179688 "/>
            <path d="M 19.59375 10.457031 L 23.960938 10.457031 L 23.960938 11.78125 L 19.59375 11.78125 Z M 19.59375 10.457031 "/>
            <path d="M 19.59375 8.738281 L 23.960938 8.738281 L 23.960938 10.0625 L 19.59375 10.0625 Z M 19.59375 8.738281 "/>
            <path d="M 19.59375 7.015625 L 23.960938 7.015625 L 23.960938 8.339844 L 19.59375 8.339844 Z M 19.59375 7.015625 "/>
            <path d="M 19.59375 5.296875 L 23.960938 5.296875 L 23.960938 6.621094 L 19.59375 6.621094 Z M 19.59375 5.296875 "/>
        </g>
    </symbol>

    <symbol id="SEARCH" viewBox="0 0 24 24">
        <path d="M 23.671875 20.75 L 19 16.078125 C 18.789062 15.867188 18.5 15.75 18.203125 15.75 L 17.4375 15.75 C 18.730469 14.09375 19.5 12.015625 19.5 9.75 C 19.5 4.363281 15.136719 0 9.75 0 C 4.363281 0 0 4.363281 0 9.75 C 0 15.136719 4.363281 19.5 9.75 19.5 C 12.015625 19.5 14.09375 18.730469 15.75 17.4375 L 15.75 18.203125 C 15.75 18.5 15.867188 18.789062 16.078125 19 L 20.75 23.671875 C 21.191406 24.113281 21.90625 24.113281 22.339844 23.671875 L 23.667969 22.34375 C 24.109375 21.90625 24.109375 21.191406 23.671875 20.75 Z M 9.75 15.75 C 6.4375 15.75 3.75 13.070312 3.75 9.75 C 3.75 6.4375 6.429688 3.75 9.75 3.75 C 13.0625 3.75 15.75 6.429688 15.75 9.75 C 15.75 13.0625 13.070312 15.75 9.75 15.75 Z M 9.75 15.75 "/>
    </symbol>

    <symbol id="ANGLE_LEFT" viewBox="0 0 12 24">
        <path d="M 1.484375 11.203125 L 7.859375 4.828125 C 8.300781 4.386719 9.015625 4.386719 9.449219 4.828125 L 10.507812 5.886719 C 10.949219 6.328125 10.949219 7.039062 10.507812 7.476562 L 5.996094 12 L 10.515625 16.519531 C 10.953125 16.960938 10.953125 17.671875 10.515625 18.109375 L 9.453125 19.171875 C 9.015625 19.613281 8.300781 19.613281 7.867188 19.171875 L 1.492188 12.796875 C 1.046875 12.355469 1.046875 11.644531 1.484375 11.203125 Z M 1.484375 11.203125 "/>
    </symbol>

    <symbol id="ANGLE_RIGHT" viewBox="0 0 12 24">
        <path d="M 10.515625 12.796875 L 4.140625 19.171875 C 3.699219 19.613281 2.984375 19.613281 2.550781 19.171875 L 1.492188 18.113281 C 1.050781 17.671875 1.050781 16.960938 1.492188 16.523438 L 6.007812 12.003906 L 1.492188 7.484375 C 1.050781 7.046875 1.050781 6.332031 1.492188 5.898438 L 2.546875 4.828125 C 2.984375 4.386719 3.699219 4.386719 4.132812 4.828125 L 10.507812 11.203125 C 10.953125 11.644531 10.953125 12.355469 10.515625 12.796875 Z M 10.515625 12.796875 "/>
    </symbol>

    <symbol id="MINUS--SOLID" viewBox="0 0 24 24">
        <path d="M 22.285156 10.96875 L 1.714844 10.96875 C 0.769531 10.96875 0 11.722656 0 12.65625 L 0 14.34375 C 0 15.277344 0.769531 16.03125 1.714844 16.03125 L 22.285156 16.03125 C 23.230469 16.03125 24 15.277344 24 14.34375 L 24 12.65625 C 24 11.722656 23.230469 10.96875 22.285156 10.96875 Z M 22.285156 10.96875 "/>
    </symbol>

    <symbol id="MINUS--LIGHT" viewBox="0 0 24 24">
        <path d="M 23.5 14.5 L 0.5 14.5 C 0.222656 14.5 0 14.722656 0 15 L 0 17 C 0 17.277344 0.222656 17.5 0.5 17.5 L 23.5 17.5 C 23.777344 17.5 24 17.277344 24 17 L 24 15 C 24 14.722656 23.777344 14.5 23.5 14.5 Z M 23.5 14.5 "/>
    </symbol>

    <symbol id="LONG_ARROW_RIGHT" viewBox="0 0 24 27">
        <path d="M 16.816406 11.390625 L 0.644531 11.390625 C 0.289062 11.390625 0 11.675781 0 12.023438 L 0 14.976562 C 0 15.324219 0.289062 15.609375 0.644531 15.609375 L 16.816406 15.609375 L 16.816406 18.039062 C 16.816406 19.164062 18.203125 19.730469 19.011719 18.933594 L 23.625 14.394531 C 24.125 13.902344 24.125 13.097656 23.625 12.605469 L 19.011719 8.066406 C 18.203125 7.269531 16.816406 7.835938 16.816406 8.960938 Z M 16.816406 11.390625 "/>
    </symbol>

    <symbol id="LONG_ARROW_LEFT" viewBox="0 0 24 27">
        <path d="M 7.183594 15.609375 L 23.355469 15.609375 C 23.710938 15.609375 24 15.324219 24 14.976562 L 24 12.023438 C 24 11.675781 23.710938 11.390625 23.355469 11.390625 L 7.183594 11.390625 L 7.183594 8.960938 C 7.183594 7.835938 5.796875 7.269531 4.988281 8.066406 L 0.375 12.605469 C -0.125 13.097656 -0.125 13.902344 0.375 14.394531 L 4.988281 18.933594 C 5.796875 19.730469 7.183594 19.164062 7.183594 18.039062 Z M 7.183594 15.609375 "/>
    </symbol>

    <symbol id="FUNNEL" viewBox="0 0 24 27">
        <g id="surface1">
            <path d="M 22.851562 0 C 23.515625 0 24.054688 0.539062 24.054688 1.203125 C 24.054688 1.925781 24.054688 2.886719 24.054688 3.609375 C 24.054688 4.273438 23.515625 4.8125 22.851562 4.8125 C 18.28125 4.8125 5.773438 4.8125 1.203125 4.8125 C 0.539062 4.8125 0 4.273438 0 3.609375 C 0 2.886719 0 1.925781 0 1.203125 C 0 0.539062 0.539062 0 1.203125 0 C 5.773438 0 18.28125 0 22.851562 0 Z M 22.851562 0 "/>
            <path d="M 18.726562 6.804688 C 19.390625 6.804688 19.929688 7.34375 19.929688 8.007812 C 19.929688 8.726562 19.929688 9.691406 19.929688 10.414062 C 19.929688 11.078125 19.390625 11.613281 18.726562 11.613281 C 15.808594 11.613281 8.246094 11.613281 5.328125 11.613281 C 4.660156 11.613281 4.125 11.078125 4.125 10.414062 C 4.125 9.691406 4.125 8.726562 4.125 8.007812 C 4.125 7.34375 4.660156 6.804688 5.328125 6.804688 C 8.246094 6.804688 15.808594 6.804688 18.726562 6.804688 Z M 18.726562 6.804688 "/>
            <path d="M 14.605469 13.675781 C 15.269531 13.675781 15.808594 14.214844 15.808594 14.878906 C 15.808594 15.601562 15.808594 16.5625 15.808594 17.285156 C 15.808594 17.949219 15.269531 18.488281 14.605469 18.488281 C 13.332031 18.488281 10.722656 18.488281 9.449219 18.488281 C 8.785156 18.488281 8.246094 17.949219 8.246094 17.285156 C 8.246094 16.5625 8.246094 15.601562 8.246094 14.878906 C 8.246094 14.214844 8.785156 13.675781 9.449219 13.675781 C 10.722656 13.675781 13.332031 13.675781 14.605469 13.675781 Z M 14.605469 13.675781 "/>
        </g>
    </symbol>

    <symbol id="POINTER" viewBox="0 0 18 24">
        <path d="M 8.074219 23.515625 C 1.265625 13.640625 0 12.628906 0 9 C 0 4.03125 4.03125 0 9 0 C 13.96875 0 18 4.03125 18 9 C 18 12.628906 16.734375 13.640625 9.925781 23.515625 C 9.476562 24.160156 8.523438 24.160156 8.074219 23.515625 Z M 8.074219 23.515625 "/>
    </symbol>
</svg>